<svg width="203.497" height="203.497" viewBox="0 0 53.842 53.842" xmlns="http://www.w3.org/2000/svg"><g transform="translate(15.102 -92.794)"><circle style="opacity:1;fill:#fff;stroke:#000;stroke-width:.797046;stroke-linecap:round;stroke-miterlimit:4;stroke-dasharray:none" cx="11.819" cy="119.715" r="26.522"/><g transform="matrix(.40433 0 0 .40433 -321.543 -2.004)"><path style="fill:#ff5900;fill-opacity:1;fill-rule:evenodd;stroke:#f60;stroke-width:0;stroke-linejoin:round" d="M828.2 341.39a33.033 49.638 42.9 0 0 47.758-51.45 33.033 49.638 42.9 0 0-34.262-31.757 33.033 49.638 42.9 0 0-47.757 51.45 33.033 49.638 42.9 0 0 34.262 31.757zm.54-3.32a30.397 45.677 42.9 0 1-31.529-29.223 30.397 45.677 42.9 0 1 43.947-47.345 30.397 45.677 42.9 0 1 31.528 29.223 30.397 45.677 42.9 0 1-43.947 47.345z"/><rect style="fill:#ff5900;fill-opacity:1;stroke-width:4" width="50.311" height="8.512" x="823.489" y="284.033" ry="4.256"/><rect style="fill:#ff5900;fill-opacity:1;stroke-width:4" width="50.311" height="8.512" x="823.489" y="318.081" ry="4.256"/><rect style="fill:#ff5900;fill-opacity:1;stroke-width:4" width="50.311" height="8.512" x="823.489" y="300.482" ry="4.256"/><rect style="fill:#ff5900;fill-opacity:1;stroke-width:4" width="7.685" height="23.306" x="771.071" y="284.144" ry="3.665"/><rect style="fill:#ff5900;fill-opacity:1;stroke-width:4" width="47.683" height="7.33" x="771.071" y="319.102" ry="3.665"/><rect style="fill:#ff5900;fill-opacity:1;stroke-width:4.14974" width="7.685" height="25.083" x="811.069" y="301.349" ry="3.945"/><rect style="fill:#ff5900;fill-opacity:1;stroke-width:4" width="47.683" height="7.33" x="771.071" y="284.144" ry="3.665"/><rect style="fill:#ff5900;fill-opacity:1;stroke-width:4" width="47.683" height="7.33" x="771.071" y="300.871" ry="3.665"/></g></g></svg>