<?xml version="1.0" encoding="UTF-8" standalone="no"?>
<svg
   width="105.444mm"
   height="98.133003mm"
   viewBox="0 0 105.444 98.133003"
   version="1.1"
   id="svg8"
   inkscape:version="1.4 (e7c3feb1, 2024-10-09)"
   sodipodi:docname="placeholder.svg"
   inkscape:export-filename="C:\Users\Kids\Desktop\drawing.png"
   inkscape:export-xdpi="2601.542"
   inkscape:export-ydpi="2601.542"
   xmlns:inkscape="http://www.inkscape.org/namespaces/inkscape"
   xmlns:sodipodi="http://sodipodi.sourceforge.net/DTD/sodipodi-0.dtd"
   xmlns="http://www.w3.org/2000/svg"
   xmlns:svg="http://www.w3.org/2000/svg"
   xmlns:rdf="http://www.w3.org/1999/02/22-rdf-syntax-ns#"
   xmlns:cc="http://creativecommons.org/ns#"
   xmlns:dc="http://purl.org/dc/elements/1.1/">
  <defs
     id="defs2" />
  <sodipodi:namedview
     id="base"
     pagecolor="#ffffff"
     bordercolor="#666666"
     borderopacity="1.0"
     inkscape:pageopacity="0.0"
     inkscape:pageshadow="2"
     inkscape:zoom="1.4142136"
     inkscape:cx="191.27238"
     inkscape:cy="199.05055"
     inkscape:document-units="mm"
     inkscape:current-layer="g1355"
     showgrid="false"
     showborder="true"
     inkscape:window-width="1280"
     inkscape:window-height="712"
     inkscape:window-x="0"
     inkscape:window-y="34"
     inkscape:window-maximized="1"
     showguides="false"
     inkscape:document-rotation="0"
     inkscape:pagecheckerboard="0"
     borderlayer="true"
     inkscape:showpageshadow="2"
     inkscape:deskcolor="#d1d1d1" />
  <metadata
     id="metadata5">
    <rdf:RDF>
      <cc:Work
         rdf:about="">
        <dc:format>image/svg+xml</dc:format>
        <dc:type
           rdf:resource="http://purl.org/dc/dcmitype/StillImage" />
      </cc:Work>
    </rdf:RDF>
  </metadata>
  <g
     inkscape:label="Layer 1"
     inkscape:groupmode="layer"
     id="layer1">
    <g
       id="g4542"
       transform="translate(-771.07143,-257.02381)">
      <g
         id="g97">
        <g
           id="g1355">
          <g
             id="g457">
            <path
               inkscape:export-filename="C:\Users\Kids\Desktop\Desktopg4617.png"
               style="fill:#ff5900;fill-opacity:1;fill-rule:evenodd;stroke:#ff6600;stroke-width:0;stroke-linejoin:round"
               d="m 828.20088,341.38997 a 33.033072,49.637814 42.899886 0 0 47.75676,-51.45025 33.033072,49.637814 42.899886 0 0 -34.26174,-31.75702 33.033072,49.637814 42.899886 0 0 -47.75663,51.45021 33.033072,49.637814 42.899886 0 0 34.26161,31.75706 z m 0.53837,-3.31947 a 30.397453,45.677347 42.89989 0 1 -31.52795,-29.22323 30.397453,45.677347 42.89989 0 1 43.94623,-47.3451 30.397453,45.677347 42.89989 0 1 31.52808,29.22319 30.397453,45.677347 42.89989 0 1 -43.94636,47.34514 z"
               id="circle4535"
               inkscape:connector-curvature="0"
               inkscape:export-xdpi="150.10001"
               inkscape:export-ydpi="150.10001" />
            <rect
               style="fill:#ff5900;fill-opacity:1;stroke-width:4"
               id="rect2666"
               width="50.310837"
               height="8.5118198"
               x="823.4892"
               y="284.03336"
               ry="4.2559099" />
            <rect
               style="fill:#ff5900;fill-opacity:1;stroke-width:4"
               id="rect2670"
               width="50.31089"
               height="8.5119801"
               x="823.48926"
               y="318.08115"
               ry="4.2559023" />
            <rect
               style="fill:#ff5900;fill-opacity:1;stroke-width:4"
               id="rect2668"
               width="50.31089"
               height="8.5119801"
               x="823.48926"
               y="300.48206"
               ry="4.2559023" />
            <rect
               style="fill:#ff5900;fill-opacity:1;stroke-width:4"
               id="rect2704"
               width="7.6851101"
               height="23.305559"
               x="771.07141"
               y="284.14371"
               ry="3.6650083" />
            <rect
               style="fill:#ff5900;fill-opacity:1;stroke-width:4"
               id="rect2700"
               width="47.68269"
               height="7.3299999"
               x="771.07141"
               y="319.10214"
               ry="3.665" />
            <rect
               style="fill:#ff5900;fill-opacity:1;stroke-width:4.14974"
               id="rect2702"
               width="7.6851201"
               height="25.083122"
               x="811.06897"
               y="301.34903"
               ry="3.9445462" />
            <rect
               style="fill:#ff5900;fill-opacity:1;stroke-width:4"
               id="rect2672"
               width="47.68269"
               height="7.3299999"
               x="771.07141"
               y="284.14371"
               ry="3.665" />
            <rect
               style="fill:#ff5900;fill-opacity:1;stroke-width:4"
               id="rect2674"
               width="47.68269"
               height="7.3299999"
               x="771.07141"
               y="300.87112"
               ry="3.665" />
          </g>
          <path
             d="m 809.37894,351.19998 q -0.57856,0 -0.98778,-0.21167 -0.40922,-0.21166 -0.72672,-0.61383 l 0.45155,-0.45156 q 0.23284,0.32456 0.53623,0.49389 0.30339,0.16228 0.74789,0.16228 0.43744,0 0.6985,-0.1905 0.26811,-0.1905 0.26811,-0.52211 0,-0.27517 -0.127,-0.4445 -0.127,-0.16933 -0.34573,-0.27517 -0.21166,-0.11289 -0.46566,-0.19755 -0.254,-0.0917 -0.508,-0.1905 -0.254,-0.10584 -0.46567,-0.254 -0.21167,-0.15523 -0.34572,-0.40217 -0.127,-0.24694 -0.127,-0.62089 0,-0.41628 0.19755,-0.70556 0.20461,-0.29633 0.55034,-0.45155 0.35278,-0.16228 0.79022,-0.16228 0.47978,0 0.86078,0.1905 0.381,0.18345 0.62089,0.48683 l -0.45156,0.45156 q -0.21872,-0.254 -0.47272,-0.381 -0.24695,-0.127 -0.5715,-0.127 -0.39511,0 -0.62795,0.17639 -0.23283,0.16933 -0.23283,0.47978 0,0.24694 0.127,0.40216 0.13406,0.14817 0.34572,0.254 0.21167,0.10584 0.46567,0.19756 0.26106,0.0847 0.51506,0.1905 0.254,0.10583 0.46566,0.26811 0.21167,0.16228 0.33867,0.42333 0.13406,0.25401 0.13406,0.64206 0,0.64911 -0.45156,1.016 -0.4445,0.36689 -1.2065,0.36689 z m 2.44828,-0.0705 v -3.3514 h 0.635 v 3.3514 z m 0.3175,-4.02167 q -0.17639,0 -0.28928,-0.11289 -0.11289,-0.11995 -0.11289,-0.29634 0,-0.16933 0.11289,-0.28222 0.11289,-0.11994 0.28928,-0.11994 0.17639,0 0.28928,0.11994 0.11289,0.11289 0.11289,0.28222 0,0.17639 -0.11289,0.29634 -0.11289,0.11289 -0.28928,0.11289 z m 3.62657,4.02167 v -1.9544 q 0,-0.381 -0.23989,-0.62794 -0.23989,-0.24694 -0.62089,-0.24694 -0.254,0 -0.45156,0.11288 -0.19755,0.11289 -0.31044,0.31045 -0.11289,0.19755 -0.11289,0.45155 l -0.26106,-0.14816 q 0,-0.381 0.16933,-0.67734 0.16934,-0.29633 0.47273,-0.46566 0.30339,-0.17639 0.68439,-0.17639 0.381,0 0.67028,0.1905 0.29633,0.1905 0.46566,0.50094 0.16934,0.30339 0.16934,0.64911 v 2.0814 z m -2.37067,0 v -3.3514 h 0.635 v 3.3514 z m 5.3975,0.0705 q -0.49389,0 -0.89605,-0.23283 -0.39511,-0.23284 -0.62795,-0.62795 -0.22578,-0.40216 -0.22578,-0.889 0,-0.49389 0.22578,-0.889 0.23284,-0.39511 0.62795,-0.62089 0.40216,-0.23283 0.89605,-0.23283 0.38806,0 0.71967,0.14817 0.33161,0.14111 0.5715,0.41627 l -0.42333,0.42334 q -0.15523,-0.18345 -0.381,-0.27517 -0.21873,-0.0988 -0.48684,-0.0988 -0.3175,0 -0.56444,0.14817 -0.24695,0.14111 -0.38806,0.39511 -0.14111,0.254 -0.14111,0.58561 0,0.33161 0.14111,0.58561 0.14111,0.254 0.38806,0.40217 0.24694,0.14817 0.56444,0.14817 0.26811,0 0.48684,-0.0917 0.22577,-0.0988 0.38805,-0.28222 l 0.41628,0.42334 q -0.23283,0.26811 -0.5715,0.41627 -0.33161,0.14817 -0.71967,0.14817 z m 3.40783,0 q -0.50094,0 -0.90311,-0.22578 -0.40216,-0.23283 -0.635,-0.62794 -0.23283,-0.39511 -0.23283,-0.89606 0,-0.49389 0.22578,-0.889 0.23283,-0.39511 0.62089,-0.62089 0.39511,-0.23283 0.88194,-0.23283 0.46567,0 0.81845,0.21167 0.35983,0.21166 0.55739,0.58561 0.20461,0.37394 0.20461,0.84666 0,0.0706 -0.007,0.15523 -0.007,0.0776 -0.0282,0.18344 h -2.82928 v -0.52917 h 2.49061 l -0.23283,0.20462 q 0,-0.33867 -0.11995,-0.57151 -0.11994,-0.23988 -0.33866,-0.36688 -0.21873,-0.13406 -0.52917,-0.13406 -0.32456,0 -0.5715,0.14111 -0.24694,0.14111 -0.381,0.39511 -0.13406,0.254 -0.13406,0.59973 0,0.35277 0.14112,0.62088 0.14111,0.26106 0.40216,0.40923 0.26106,0.14111 0.59972,0.14111 0.28223,0 0.51506,-0.0988 0.23989,-0.0988 0.40922,-0.29633 l 0.40923,0.41627 q -0.23989,0.28223 -0.59267,0.43039 -0.34572,0.14817 -0.74084,0.14817 z m 4.45206,-0.0705 v -4.89656 h 0.65617 v 4.89656 z m -1.00189,-4.3039 v -0.59266 h 1.5875 v 0.59266 z m 3.26672,4.3039 1.47462,-2.01084 0.23989,-0.127 q -0.0847,0.14111 -0.20462,0.24694 -0.11994,0.10584 -0.29633,0.16228 -0.16933,0.0565 -0.41628,0.0565 -0.42333,0 -0.78316,-0.20461 -0.35278,-0.20462 -0.56445,-0.56445 -0.21167,-0.36689 -0.21167,-0.8255 0,-0.47272 0.23284,-0.85372 0.23283,-0.38806 0.62089,-0.61384 0.38805,-0.23283 0.86078,-0.23283 0.47977,0 0.86783,0.22578 0.38805,0.22578 0.61383,0.60678 0.22578,0.37394 0.22578,0.84666 0,0.64912 -0.45156,1.29117 l -1.43933,1.99673 z m 0.95251,-2.19428 q 0.29633,0 0.52916,-0.14112 0.23989,-0.14816 0.37395,-0.38805 0.14111,-0.24695 0.14111,-0.54328 0,-0.31044 -0.14111,-0.55033 -0.13406,-0.24695 -0.37395,-0.38806 -0.23283,-0.14111 -0.52916,-0.14111 -0.29634,0 -0.53623,0.14111 -0.23283,0.14111 -0.37394,0.38806 -0.14111,0.23989 -0.14111,0.55033 0,0.30339 0.14111,0.54328 0.14111,0.23989 0.381,0.38805 0.23989,0.14112 0.52917,0.14112 z m 3.80999,2.26483 q -0.48683,0 -0.86078,-0.18344 -0.36689,-0.18345 -0.5715,-0.508 -0.20461,-0.32456 -0.20461,-0.73378 0,-0.33161 0.127,-0.60678 0.127,-0.27517 0.37395,-0.46567 0.24694,-0.19755 0.57855,-0.28222 l 0.0212,0.1905 q -0.28222,-0.0776 -0.47978,-0.24694 -0.19756,-0.17639 -0.30339,-0.40923 -0.0988,-0.23989 -0.0988,-0.508 0,-0.381 0.18345,-0.67028 0.18344,-0.28927 0.50094,-0.45155 0.32456,-0.16933 0.73378,-0.16933 0.41628,0 0.73378,0.16933 0.3175,0.16228 0.50094,0.45155 0.18345,0.28928 0.18345,0.67028 0,0.26811 -0.10583,0.508 -0.0988,0.23284 -0.29634,0.40923 -0.1905,0.16933 -0.47272,0.24694 l 0.0141,-0.1905 q 0.33867,0.0847 0.57856,0.28222 0.24694,0.1905 0.37394,0.46567 0.13406,0.27517 0.13406,0.60678 0,0.40922 -0.20461,0.73378 -0.20462,0.32455 -0.57856,0.508 -0.36689,0.18344 -0.86078,0.18344 z m 0,-0.59972 q 0.29633,0 0.51506,-0.11289 0.22577,-0.11995 0.35277,-0.32456 0.13406,-0.20461 0.13406,-0.47272 0,-0.26105 -0.13406,-0.46567 -0.127,-0.20461 -0.35277,-0.3175 -0.21873,-0.11994 -0.51506,-0.11994 -0.28928,0 -0.51505,0.11994 -0.22578,0.11289 -0.35984,0.3175 -0.127,0.20462 -0.127,0.46567 0,0.26811 0.127,0.47272 0.13406,0.20461 0.35984,0.32456 0.22577,0.11289 0.51505,0.11289 z m 0,-2.32834 q 0.35278,0 0.57856,-0.21872 0.22577,-0.21872 0.22577,-0.56444 0,-0.33867 -0.22577,-0.55034 -0.22578,-0.21872 -0.57856,-0.21872 -0.34572,0 -0.5715,0.21872 -0.22578,0.21167 -0.22578,0.55034 0,0.34572 0.22578,0.56444 0.22578,0.21872 0.5715,0.21872 z m 4.26861,2.92806 q -0.55033,0 -1.00895,-0.31044 -0.45155,-0.31045 -0.71966,-0.87489 -0.26811,-0.5715 -0.26811,-1.34056 0,-0.76906 0.26105,-1.3335 0.26811,-0.56445 0.71967,-0.86783 0.45155,-0.31045 0.99483,-0.31045 0.55739,0 1.00895,0.31045 0.45155,0.30338 0.71261,0.86783 0.26811,0.56444 0.26811,1.34056 0,0.76905 -0.26811,1.34055 -0.26106,0.56445 -0.71261,0.87489 -0.4445,0.30339 -0.98778,0.30339 z m -0.0141,-0.62794 q 0.38805,0 0.67733,-0.21167 0.29634,-0.21872 0.46567,-0.64206 0.16933,-0.42333 0.16933,-1.04422 0,-0.62089 -0.16933,-1.03717 -0.16933,-0.42333 -0.46567,-0.635 -0.29633,-0.21872 -0.68439,-0.21872 -0.381,0 -0.67733,0.21872 -0.29633,0.21167 -0.46567,0.635 -0.16228,0.41628 -0.16228,1.03717 0,0.62089 0.16228,1.04422 0.16934,0.42334 0.46567,0.64206 0.29633,0.21167 0.68439,0.21167 z"
             id="text1"
             style="font-size:7.05556px;font-family:Outfit;-inkscape-font-specification:Outfit;stroke-width:1.27;stroke-dasharray:1.27, 1.27"
             aria-label="Since 1980" />
        </g>
      </g>
    </g>
  </g>
</svg>
