<?xml version="1.0" encoding="UTF-8" standalone="no"?>
<svg
   width="145mm"
   height="50mm"
   viewBox="0 0 145 50"
   xml:space="preserve"
   version="1.1"
   id="svg10"
   sodipodi:docname="HeaderLogo.svg"
   inkscape:version="1.3.2 (091e20e, 2023-11-25, custom)"
   xmlns:inkscape="http://www.inkscape.org/namespaces/inkscape"
   xmlns:sodipodi="http://sodipodi.sourceforge.net/DTD/sodipodi-0.dtd"
   xmlns="http://www.w3.org/2000/svg"
   xmlns:svg="http://www.w3.org/2000/svg"><defs
     id="defs10" /><sodipodi:namedview
     id="namedview10"
     pagecolor="#ffffff"
     bordercolor="#000000"
     borderopacity="0.25"
     inkscape:showpageshadow="2"
     inkscape:pageopacity="0.0"
     inkscape:pagecheckerboard="0"
     inkscape:deskcolor="#d1d1d1"
     inkscape:document-units="mm"
     inkscape:zoom="2.6768534"
     inkscape:cx="274.01575"
     inkscape:cy="94.327166"
     inkscape:window-width="1920"
     inkscape:window-height="1017"
     inkscape:window-x="-8"
     inkscape:window-y="-8"
     inkscape:window-maximized="1"
     inkscape:current-layer="g10" /><g
     transform="translate(-28.803 -122.6)"
     id="g10"><g
       id="text2"
       style="font-size:16.7938px;line-height:1.05;font-family:'Shree Devanagari 714';-inkscape-font-specification:'Shree Devanagari 714, ';letter-spacing:0;word-spacing:0;fill:#f75c03;stroke-width:0.419845"
       transform="matrix(.99941 0 0 1.00059 .901 -4.026)"
       aria-label="SagarawatElectricals"><path
         style="font-weight:700;font-family:Outfit;-inkscape-font-specification:'Outfit Bold'"
         d="m 81.749261,148.77174 q -1.46106,0 -2.51907,-0.47023 -1.041216,-0.48702 -1.914493,-1.46106 l 1.712968,-1.69617 q 0.570989,0.65495 1.259535,1.02442 0.705339,0.35267 1.628998,0.35267 0.83969,0 1.293123,-0.30229 0.470226,-0.30229 0.470226,-0.83969 0,-0.48702 -0.302288,-0.78931 -0.302289,-0.30229 -0.806103,-0.52061 -0.48702,-0.21832 -1.091597,-0.41984 -0.587783,-0.20153 -1.175566,-0.45343 -0.587783,-0.26871 -1.091597,-0.65496 -0.48702,-0.40305 -0.789308,-0.99084 -0.302289,-0.60457 -0.302289,-1.51144 0,-1.0916 0.520608,-1.8809 0.537402,-0.78931 1.477855,-1.19236 0.940452,-0.41985 2.1664,-0.41985 1.242741,0 2.267163,0.43664 1.041215,0.43664 1.712967,1.19236 l -1.712967,1.69617 q -0.537402,-0.55419 -1.091597,-0.82289 -0.537402,-0.2687 -1.225948,-0.2687 -0.688545,0 -1.091597,0.2687 -0.403051,0.2519 -0.403051,0.73892 0,0.45344 0.302289,0.73893 0.302288,0.2687 0.789308,0.47023 0.503814,0.20152 1.091597,0.40305 0.604577,0.20152 1.19236,0.47023 0.587783,0.2687 1.074803,0.68854 0.503814,0.40305 0.806103,1.04122 0.302288,0.62137 0.302288,1.54503 0,1.69617 -1.209154,2.67021 -1.209153,0.95725 -3.341966,0.95725 z m 9.354146,-0.0168 q -1.125185,0 -2.015256,-0.55419 -0.873278,-0.5542 -1.393886,-1.51144 -0.503814,-0.95725 -0.503814,-2.1832 0,-1.22595 0.503814,-2.18319 0.520608,-0.95725 1.393886,-1.51144 0.890071,-0.5542 2.015256,-0.5542 0.822896,0 1.477854,0.31908 0.671752,0.31909 1.091597,0.89007 0.419845,0.5542 0.470227,1.27633 v 3.5267 q -0.05038,0.72213 -0.470227,1.29312 -0.403051,0.5542 -1.074803,0.87328 -0.671752,0.31908 -1.494648,0.31908 z m 0.520608,-2.31754 q 0.822896,0 1.32671,-0.5374 0.503814,-0.5542 0.503814,-1.39389 0,-0.57099 -0.235113,-1.00763 -0.21832,-0.43663 -0.638165,-0.67175 -0.403051,-0.2519 -0.940452,-0.2519 -0.537402,0 -0.957247,0.2519 -0.403051,0.23512 -0.654958,0.67175 -0.235113,0.43664 -0.235113,1.00763 0,0.5542 0.235113,0.99084 0.235113,0.43664 0.654958,0.68854 0.419845,0.25191 0.940453,0.25191 z m 1.729761,2.14961 v -2.19999 l 0.386258,-1.98167 -0.386258,-1.98167 v -1.99846 h 2.51907 v 8.16179 z m 7.792314,3.66104 q -1.343505,0 -2.367927,-0.47022 -1.007628,-0.45343 -1.595411,-1.29312 l 1.578618,-1.57862 q 0.436638,0.52061 0.97404,0.78931 0.5542,0.2687 1.32671,0.2687 0.95725,0 1.49465,-0.47023 0.55419,-0.47023 0.55419,-1.32671 v -2.08243 l 0.43664,-1.78014 -0.38625,-1.78015 v -2.09922 h 2.51907 v 7.67477 q 0,1.25953 -0.58779,2.18319 -0.58778,0.92366 -1.6122,1.44427 -1.02442,0.5206 -2.33434,0.5206 z m -0.11756,-3.91295 q -1.125182,0 -1.99846,-0.5374 -0.873277,-0.5374 -1.377091,-1.46106 -0.503814,-0.92366 -0.503814,-2.04885 0,-1.14198 0.503814,-2.04884 0.503814,-0.92366 1.377091,-1.44427 0.873278,-0.5374 1.99846,-0.5374 0.83969,0 1.49465,0.31908 0.67175,0.30229 1.0748,0.87328 0.41985,0.5542 0.47023,1.29312 v 3.10686 q -0.0504,0.72213 -0.47023,1.29312 -0.40305,0.55419 -1.0748,0.87328 -0.67175,0.31908 -1.49465,0.31908 z m 0.48702,-2.28396 q 0.5374,0 0.92366,-0.23511 0.40305,-0.23511 0.60458,-0.62137 0.21832,-0.40305 0.21832,-0.90687 0,-0.50381 -0.21832,-0.90686 -0.20153,-0.40305 -0.60458,-0.63817 -0.38626,-0.23511 -0.92366,-0.23511 -0.5206,0 -0.92366,0.23511 -0.40305,0.23512 -0.621367,0.63817 -0.218319,0.40305 -0.218319,0.90686 0,0.47023 0.218319,0.89007 0.218317,0.40306 0.604577,0.63817 0.40305,0.23511 0.94045,0.23511 z m 9.38773,2.7038 q -1.12519,0 -2.01526,-0.55419 -0.87327,-0.5542 -1.39388,-1.51144 -0.50382,-0.95725 -0.50382,-2.1832 0,-1.22595 0.50382,-2.18319 0.52061,-0.95725 1.39388,-1.51144 0.89007,-0.5542 2.01526,-0.5542 0.8229,0 1.47785,0.31908 0.67176,0.31909 1.0916,0.89007 0.41985,0.5542 0.47023,1.27633 v 3.5267 q -0.0504,0.72213 -0.47023,1.29312 -0.40305,0.5542 -1.0748,0.87328 -0.67175,0.31908 -1.49465,0.31908 z m 0.52061,-2.31754 q 0.82289,0 1.32671,-0.5374 0.50381,-0.5542 0.50381,-1.39389 0,-0.57099 -0.23511,-1.00763 -0.21832,-0.43663 -0.63817,-0.67175 -0.40305,-0.2519 -0.94045,-0.2519 -0.5374,0 -0.95725,0.2519 -0.40305,0.23512 -0.65495,0.67175 -0.23512,0.43664 -0.23512,1.00763 0,0.5542 0.23512,0.99084 0.23511,0.43664 0.65495,0.68854 0.41985,0.25191 0.94046,0.25191 z m 1.72976,2.14961 v -2.19999 l 0.38626,-1.98167 -0.38626,-1.98167 v -1.99846 h 2.51907 v 8.16179 z m 4.33279,0 v -8.16179 h 2.56945 v 8.16179 z m 2.56945,-4.48395 -1.0748,-0.83969 q 0.31908,-1.42747 1.0748,-2.21678 0.75572,-0.78931 2.09923,-0.78931 0.58778,0 1.02442,0.18473 0.45343,0.16794 0.78931,0.5374 l -1.52824,1.93129 q -0.16794,-0.18473 -0.41984,-0.28549 -0.25191,-0.10077 -0.57099,-0.10077 -0.63817,0 -1.02443,0.40305 -0.36946,0.38626 -0.36946,1.17557 z m 7.77553,4.65188 q -1.12518,0 -2.01525,-0.55419 -0.87328,-0.5542 -1.39389,-1.51144 -0.50381,-0.95725 -0.50381,-2.1832 0,-1.22595 0.50381,-2.18319 0.52061,-0.95725 1.39389,-1.51144 0.89007,-0.5542 2.01525,-0.5542 0.8229,0 1.47786,0.31908 0.67175,0.31909 1.09159,0.89007 0.41985,0.5542 0.47023,1.27633 v 3.5267 q -0.0504,0.72213 -0.47023,1.29312 -0.40305,0.5542 -1.0748,0.87328 -0.67175,0.31908 -1.49465,0.31908 z m 0.52061,-2.31754 q 0.8229,0 1.32671,-0.5374 0.50381,-0.5542 0.50381,-1.39389 0,-0.57099 -0.23511,-1.00763 -0.21832,-0.43663 -0.63816,-0.67175 -0.40305,-0.2519 -0.94046,-0.2519 -0.5374,0 -0.95724,0.2519 -0.40305,0.23512 -0.65496,0.67175 -0.23511,0.43664 -0.23511,1.00763 0,0.5542 0.23511,0.99084 0.23511,0.43664 0.65496,0.68854 0.41984,0.25191 0.94045,0.25191 z m 1.72976,2.14961 v -2.19999 l 0.38626,-1.98167 -0.38626,-1.98167 v -1.99846 h 2.51907 v 8.16179 z m 6.33125,0 -2.82136,-8.16179 h 2.51907 l 1.74656,5.92821 -0.73893,0.0168 1.93129,-5.945 h 2.08243 l 1.94808,5.945 -0.75572,-0.0168 1.76335,-5.92821 h 2.51907 l -2.82136,8.16179 h -2.09923 l -1.8977,-5.64272 h 0.63817 l -1.93129,5.64272 z m 14.42587,0.16793 q -1.12518,0 -2.01526,-0.55419 -0.87327,-0.5542 -1.39388,-1.51144 -0.50382,-0.95725 -0.50382,-2.1832 0,-1.22595 0.50382,-2.18319 0.52061,-0.95725 1.39388,-1.51144 0.89008,-0.5542 2.01526,-0.5542 0.8229,0 1.47785,0.31908 0.67176,0.31909 1.0916,0.89007 0.41985,0.5542 0.47023,1.27633 v 3.5267 q -0.0504,0.72213 -0.47023,1.29312 -0.40305,0.5542 -1.0748,0.87328 -0.67175,0.31908 -1.49465,0.31908 z m 0.52061,-2.31754 q 0.82289,0 1.32671,-0.5374 0.50381,-0.5542 0.50381,-1.39389 0,-0.57099 -0.23511,-1.00763 -0.21832,-0.43663 -0.63817,-0.67175 -0.40305,-0.2519 -0.94045,-0.2519 -0.5374,0 -0.95724,0.2519 -0.40306,0.23512 -0.65496,0.67175 -0.23512,0.43664 -0.23512,1.00763 0,0.5542 0.23512,0.99084 0.23511,0.43664 0.65496,0.68854 0.41984,0.25191 0.94045,0.25191 z m 1.72976,2.14961 v -2.19999 l 0.38626,-1.98167 -0.38626,-1.98167 v -1.99846 h 2.51907 v 8.16179 z m 5.49156,0 v -11.53735 h 2.56945 v 11.53735 z m -1.84732,-5.9786 v -2.18319 h 6.26409 v 2.18319 z"
         id="path10" /><path
         style="font-weight:700;font-family:Outfit;-inkscape-font-specification:'Outfit Bold'"
         d="m 78.188975,166.326 v -11.85642 h 2.636627 V 166.326 Z m 2.015257,0 v -2.28395 h 6.4992 v 2.28395 z m 0,-4.95417 v -2.19998 h 5.911417 v 2.19998 z m 0,-4.63509 v -2.26716 h 6.415231 v 2.26716 z m 8.077813,9.58926 v -12.1923 h 2.569452 v 12.1923 z m 8.413688,0.18474 q -1.32671,0 -2.367925,-0.53741 -1.024422,-0.55419 -1.612205,-1.52823 -0.587783,-0.97404 -0.587783,-2.19999 0,-1.22595 0.570989,-2.18319 0.587783,-0.97404 1.578617,-1.52824 0.990834,-0.55419 2.233576,-0.55419 1.209153,0 2.132812,0.5206 0.923659,0.52061 1.444266,1.44427 0.5374,0.92366 0.5374,2.11602 0,0.21832 -0.0336,0.47023 -0.0168,0.23511 -0.084,0.55419 l -7.036606,0.0168 v -1.76334 l 5.945005,-0.0168 -1.108391,0.73893 q -0.01679,-0.70534 -0.218319,-1.15877 -0.201526,-0.47023 -0.604577,-0.70534 -0.386257,-0.25191 -0.957247,-0.25191 -0.604576,0 -1.058009,0.28549 -0.436639,0.26871 -0.688546,0.77252 -0.235113,0.50381 -0.235113,1.22595 0,0.72213 0.251907,1.24274 0.268701,0.50381 0.738927,0.78931 0.48702,0.2687 1.141979,0.2687 0.604576,0 1.091597,-0.20153 0.48702,-0.21832 0.856483,-0.63816 l 1.41068,1.41068 q -0.604577,0.70534 -1.461061,1.05801 -0.856484,0.35267 -1.880906,0.35267 z m 9.119037,0 q -1.25953,0 -2.28395,-0.5542 -1.02443,-0.55419 -1.61221,-1.52824 -0.58778,-0.97404 -0.58778,-2.18319 0,-1.22595 0.58778,-2.18319 0.60458,-0.97404 1.629,-1.52824 1.02442,-0.55419 2.30075,-0.55419 0.95725,0 1.74656,0.33587 0.8061,0.31908 1.42747,0.97404 l -1.64579,1.64579 q -0.2855,-0.31908 -0.67176,-0.47022 -0.36946,-0.15115 -0.85648,-0.15115 -0.55419,0 -0.99083,0.25191 -0.41985,0.23511 -0.67176,0.67175 -0.23511,0.41985 -0.23511,0.99084 0,0.57099 0.23511,1.00762 0.25191,0.43664 0.68855,0.68855 0.43664,0.25191 0.97404,0.25191 0.50381,0 0.89007,-0.16794 0.40305,-0.18473 0.68855,-0.50381 l 1.629,1.64579 q -0.63817,0.67175 -1.44427,1.02442 -0.8061,0.33588 -1.79694,0.33588 z m 5.40762,-0.18474 v -11.53734 h 2.56945 V 166.326 Z m -1.84732,-5.97859 v -2.18319 h 6.26409 v 2.18319 z m 7.38928,5.97859 v -8.16178 h 2.56945 v 8.16178 z m 2.56945,-4.48394 -1.0748,-0.83969 q 0.31908,-1.42747 1.0748,-2.21678 0.75572,-0.78931 2.09922,-0.78931 0.58779,0 1.02443,0.18473 0.45343,0.16794 0.78931,0.5374 l -1.52824,1.93129 q -0.16794,-0.18473 -0.41985,-0.2855 -0.2519,-0.10076 -0.57098,-0.10076 -0.63817,0 -1.02443,0.40305 -0.36946,0.38626 -0.36946,1.17557 z m 4.58472,4.48394 v -8.16178 h 2.56945 v 8.16178 z m 1.29312,-9.28697 q -0.60458,0 -1.00763,-0.40305 -0.38625,-0.41984 -0.38625,-1.00763 0,-0.60457 0.38625,-1.00762 0.40305,-0.40306 1.00763,-0.40306 0.60458,0 0.99084,0.40306 0.38625,0.40305 0.38625,1.00762 0,0.58779 -0.38625,1.00763 -0.38626,0.40305 -0.99084,0.40305 z m 7.0366,9.47171 q -1.25954,0 -2.28396,-0.5542 -1.02442,-0.55419 -1.6122,-1.52824 -0.58779,-0.97404 -0.58779,-2.18319 0,-1.22595 0.58779,-2.18319 0.60457,-0.97404 1.62899,-1.52824 1.02443,-0.55419 2.30075,-0.55419 0.95725,0 1.74656,0.33587 0.8061,0.31908 1.42747,0.97404 l -1.64579,1.64579 q -0.28549,-0.31908 -0.67175,-0.47022 -0.36947,-0.15115 -0.85649,-0.15115 -0.55419,0 -0.99083,0.25191 -0.41984,0.23511 -0.67175,0.67175 -0.23511,0.41985 -0.23511,0.99084 0,0.57099 0.23511,1.00762 0.25191,0.43664 0.68854,0.68855 0.43664,0.25191 0.97404,0.25191 0.50382,0 0.89008,-0.16794 0.40305,-0.18473 0.68854,-0.50381 l 1.629,1.64579 q -0.63816,0.67175 -1.44427,1.02442 -0.8061,0.33588 -1.79693,0.33588 z m 7.59082,-0.0168 q -1.12519,0 -2.01526,-0.55419 -0.87328,-0.5542 -1.39389,-1.51145 -0.50381,-0.95724 -0.50381,-2.18319 0,-1.22595 0.50381,-2.18319 0.52061,-0.95725 1.39389,-1.51145 0.89007,-0.55419 2.01526,-0.55419 0.82289,0 1.47785,0.31908 0.67175,0.31908 1.0916,0.89007 0.41984,0.5542 0.47022,1.27633 v 3.5267 q -0.0504,0.72213 -0.47022,1.29312 -0.40305,0.5542 -1.07481,0.87328 -0.67175,0.31908 -1.49464,0.31908 z m 0.5206,-2.31754 q 0.8229,0 1.32671,-0.5374 0.50382,-0.5542 0.50382,-1.39389 0,-0.57099 -0.23512,-1.00763 -0.21832,-0.43664 -0.63816,-0.67175 -0.40305,-0.25191 -0.94045,-0.25191 -0.5374,0 -0.95725,0.25191 -0.40305,0.23511 -0.65496,0.67175 -0.23511,0.43664 -0.23511,1.00763 0,0.5542 0.23511,0.99083 0.23512,0.43664 0.65496,0.68855 0.41985,0.25191 0.94045,0.25191 z m 1.72976,2.1496 v -2.19998 l 0.38626,-1.98167 -0.38626,-1.98167 v -1.99846 h 2.51907 v 8.16178 z m 4.3328,0 v -12.1923 h 2.56945 v 12.1923 z m 7.35567,0.20153 q -0.72213,0 -1.42747,-0.18473 -0.68855,-0.18473 -1.29313,-0.52061 -0.58778,-0.35267 -1.00762,-0.8061 l 1.46106,-1.47786 q 0.40305,0.43664 0.95724,0.68855 0.5542,0.23511 1.20916,0.23511 0.45343,0 0.68854,-0.13435 0.25191,-0.13435 0.25191,-0.36946 0,-0.30229 -0.30229,-0.45343 -0.28549,-0.16794 -0.73893,-0.2855 -0.45343,-0.13435 -0.95724,-0.28549 -0.50382,-0.15115 -0.95725,-0.41985 -0.45343,-0.2687 -0.73893,-0.73893 -0.28549,-0.48702 -0.28549,-1.22594 0,-0.78931 0.40305,-1.3603 0.40305,-0.58778 1.14198,-0.92366 0.73893,-0.33588 1.72976,-0.33588 1.04122,0 1.91449,0.36947 0.89007,0.35267 1.44427,1.05801 l -1.46106,1.47785 q -0.38626,-0.45343 -0.87328,-0.63816 -0.47022,-0.18473 -0.92366,-0.18473 -0.43664,0 -0.65496,0.13435 -0.21832,0.11755 -0.21832,0.35267 0,0.2519 0.2855,0.40305 0.28549,0.15114 0.73893,0.2687 0.45343,0.11755 0.95724,0.28549 0.50382,0.16794 0.95725,0.45343 0.45343,0.2855 0.73893,0.77252 0.28549,0.47023 0.28549,1.24274 0,1.19236 -0.90686,1.8977 -0.89007,0.70534 -2.41831,0.70534 z"
         id="path11" /></g><g
       style="fill:#f75c03;fill-opacity:1"
       transform="matrix(.30859 0 0 .30895 -199.141 53.192)"
       id="g9"><path
         style="fill:#f75c03;fill-opacity:1;fill-rule:evenodd;stroke:#f60;stroke-width:0;stroke-linejoin:round"
         d="M828.2 341.39a33.033 49.638 42.9 0 0 47.758-51.45 33.033 49.638 42.9 0 0-34.262-31.757 33.033 49.638 42.9 0 0-47.757 51.45 33.033 49.638 42.9 0 0 34.262 31.757zm.54-3.32a30.397 45.677 42.9 0 1-31.529-29.223 30.397 45.677 42.9 0 1 43.947-47.345 30.397 45.677 42.9 0 1 31.528 29.223 30.397 45.677 42.9 0 1-43.947 47.345z"
         id="path2" /><path
         id="rect2"
         style="stroke-width:4"
         d="m 827.74501,284.03299 h 41.799 c 2.35783,0 4.256,1.89818 4.256,4.256 0,2.35782 -1.89817,4.256 -4.256,4.256 h -41.799 c -2.35782,0 -4.256,-1.89818 -4.256,-4.256 0,-2.35782 1.89818,-4.256 4.256,-4.256 z" /><path
         id="rect3"
         style="stroke-width:4"
         d="m 827.74501,318.08099 h 41.799 c 2.35783,0 4.256,1.89818 4.256,4.256 0,2.35783 -1.89817,4.256 -4.256,4.256 h -41.799 c -2.35782,0 -4.256,-1.89817 -4.256,-4.256 0,-2.35782 1.89818,-4.256 4.256,-4.256 z" /><path
         id="rect4"
         style="stroke-width:4"
         d="m 827.74501,300.48199 h 41.799 c 2.35783,0 4.256,1.89818 4.256,4.256 0,2.35783 -1.89817,4.256 -4.256,4.256 h -41.799 c -2.35782,0 -4.256,-1.89817 -4.256,-4.256 0,-2.35782 1.89818,-4.256 4.256,-4.256 z" /><path
         id="rect5"
         style="stroke-width:4"
         d="m 774.73598,284.14401 h 0.355 c 2.03041,0 3.665,1.63459 3.665,3.665 v 15.976 c 0,2.03041 -1.63459,3.665 -3.665,3.665 h -0.355 c -2.03041,0 -3.665,-1.63459 -3.665,-3.665 v -15.976 c 0,-2.03041 1.63459,-3.665 3.665,-3.665 z" /><path
         id="rect6"
         style="stroke-width:4"
         d="m 774.73598,319.10199 h 40.353 c 2.03041,0 3.665,1.63459 3.665,3.665 0,2.03041 -1.63459,3.665 -3.665,3.665 h -40.353 c -2.03041,0 -3.665,-1.63459 -3.665,-3.665 0,-2.03041 1.63459,-3.665 3.665,-3.665 z" /><path
         id="rect7"
         style="stroke-width:4.14974"
         d="m 814.91147,301.349 c 2.12874,0 3.8425,1.75947 3.8425,3.945 v 17.193 c 0,2.18553 -1.71376,3.945 -3.8425,3.945 -2.12875,0 -3.8425,-1.75947 -3.8425,-3.945 v -17.193 c 0,-2.18553 1.71375,-3.945 3.8425,-3.945 z" /><path
         id="rect8"
         style="stroke-width:4"
         d="m 774.73598,284.14401 h 40.353 c 2.03041,0 3.665,1.63459 3.665,3.665 0,2.03041 -1.63459,3.665 -3.665,3.665 h -40.353 c -2.03041,0 -3.665,-1.63459 -3.665,-3.665 0,-2.03041 1.63459,-3.665 3.665,-3.665 z" /><path
         id="rect9"
         style="stroke-width:4"
         d="m 774.73598,300.871 h 40.353 c 2.03041,0 3.665,1.63459 3.665,3.665 0,2.03041 -1.63459,3.665 -3.665,3.665 h -40.353 c -2.03041,0 -3.665,-1.63459 -3.665,-3.665 0,-2.03041 1.63459,-3.665 3.665,-3.665 z" /></g><path
       style="font-size:9.31293px;line-height:1.25;font-family:Gilroy-Medium;-inkscape-font-specification:Gilroy-Medium;letter-spacing:0;word-spacing:0;stroke-width:0.0485048"
       d="m 789.93504,353.98499 h -0.95948 l -0.66391,-1.88715 h -2.92848 l -0.66391,1.88715 h -0.91402 l 2.46465,-6.77098 h 1.2005 z m -1.90078,-2.66019 -1.18685,-3.3241 -1.1914,3.3241 z m 11.03182,-3.31046 h -2.41918 v 5.97065 h -0.90037 v -5.97065 h -2.41918 v -0.80033 h 5.73873 z m 3.10128,1.82348 h -0.0455 q -0.19098,-0.0455 -0.37288,-0.0637 -0.17734,-0.0227 -0.4229,-0.0227 -0.39562,0 -0.76395,0.17735 -0.36833,0.1728 -0.70938,0.45018 v 3.60604 h -0.8549 v -5.07937 h 0.8549 v 0.75031 q 0.5093,-0.40926 0.89582,-0.57751 0.39107,-0.1728 0.79578,-0.1728 0.22282,0 0.32286,0.0136 0.10005,0.009 0.30013,0.0409 z m 4.58825,4.14717 h -0.85035 v -0.54114 q -0.11368,0.0773 -0.30922,0.21827 -0.19098,0.13642 -0.37288,0.21828 -0.21372,0.10459 -0.49111,0.1728 -0.27739,0.0727 -0.65027,0.0727 -0.68664,0 -1.16411,-0.45473 -0.47747,-0.45473 -0.47747,-1.15957 0,-0.57751 0.24555,-0.9322 0.25011,-0.35924 0.70939,-0.56387 0.46382,-0.20463 1.11409,-0.27739 0.65027,-0.0727 1.39603,-0.10913 v -0.13188 q 0,-0.29103 -0.10459,-0.48201 -0.10004,-0.19099 -0.29102,-0.30013 -0.1819,-0.10459 -0.43655,-0.14096 -0.25465,-0.0364 -0.53204,-0.0364 -0.3365,0 -0.75031,0.0909 -0.4138,0.0864 -0.85489,0.25465 h -0.0455 v -0.86854 q 0.25011,-0.0682 0.72303,-0.15006 0.47292,-0.0818 0.9322,-0.0818 0.53659,0 0.9322,0.0909 0.40017,0.0864 0.6912,0.30012 0.28648,0.20918 0.43654,0.54113 0.15006,0.33196 0.15006,0.82307 z m -0.85035,-1.25052 v -1.41422 q -0.39107,0.0227 -0.92311,0.0682 -0.52749,0.0455 -0.8367,0.13187 -0.36834,0.10459 -0.5957,0.32741 -0.22737,0.21827 -0.22737,0.6048 0,0.43654 0.26374,0.65936 0.26375,0.21827 0.80488,0.21827 0.45019,0 0.82307,-0.1728 0.37288,-0.17734 0.69119,-0.4229 z m 6.61637,1.25052 h -0.8549 v -0.53204 q -0.36834,0.31831 -0.7685,0.49566 -0.40017,0.17734 -0.86854,0.17734 -0.90947,0 -1.44605,-0.70029 -0.53204,-0.70028 -0.53204,-1.94171 0,-0.64572 0.18189,-1.15047 0.18644,-0.50475 0.50021,-0.85945 0.30922,-0.34559 0.71848,-0.52749 0.41381,-0.18189 0.8549,-0.18189 0.40016,0 0.70938,0.0864 0.30922,0.0819 0.65027,0.2592 v -2.20091 h 0.8549 z m -0.8549,-1.25052 v -2.91484 q -0.3456,-0.15461 -0.61844,-0.21372 -0.27284,-0.0591 -0.5957,-0.0591 -0.71848,0 -1.11864,0.50021 -0.40017,0.5002 -0.40017,1.41877 0,0.90491 0.30922,1.37784 0.30922,0.46837 0.99132,0.46837 0.36379,0 0.73667,-0.15916 0.37288,-0.1637 0.69574,-0.41835 z m 3.45597,-4.6792 h -0.96403 v -0.88673 h 0.96403 z m -0.0546,5.92972 h -0.8549 v -5.07937 h 0.8549 z m 4.32906,-0.0455 q -0.24101,0.0637 -0.52749,0.10459 -0.28194,0.0409 -0.50476,0.0409 -0.77759,0 -1.1823,-0.41836 -0.40471,-0.41835 -0.40471,-1.34146 v -2.70111 h -0.57752 v -0.71848 h 0.57752 v -1.45969 h 0.85489 v 1.45969 h 1.76437 v 0.71848 h -1.76437 v 2.31459 q 0,0.40016 0.0182,0.62753 0.0182,0.22282 0.12733,0.41835 0.10004,0.1819 0.27284,0.2683 0.17734,0.0819 0.53658,0.0819 0.20918,0 0.43655,-0.0591 0.22736,-0.0637 0.3274,-0.10459 h 0.0455 z m 1.9508,-5.88424 h -0.96403 v -0.88673 h 0.96403 z m -0.0546,5.92972 h -0.8549 v -5.07937 h 0.8549 z m 6.02066,-2.53741 q 0,1.24142 -0.63663,1.95989 -0.63662,0.71848 -1.70525,0.71848 -1.07771,0 -1.71434,-0.71848 -0.63208,-0.71847 -0.63208,-1.95989 0,-1.24143 0.63208,-1.9599 0.63663,-0.72303 1.71434,-0.72303 1.06863,0 1.70525,0.72303 0.63663,0.71847 0.63663,1.9599 z m -0.88218,0 q 0,-0.98677 -0.38653,-1.46424 -0.38652,-0.48202 -1.07317,-0.48202 -0.69574,0 -1.08226,0.48202 -0.38198,0.47747 -0.38198,1.46424 0,0.95493 0.38653,1.45059 0.38652,0.49112 1.07771,0.49112 0.6821,0 1.06863,-0.48657 0.39107,-0.49111 0.39107,-1.45514 z m 6.45266,2.53741 h -0.8549 v -2.89211 q 0,-0.35014 -0.0409,-0.65481 -0.0409,-0.30922 -0.15006,-0.48202 -0.11368,-0.19099 -0.32741,-0.28193 -0.21372,-0.0955 -0.55477,-0.0955 -0.35015,0 -0.73212,0.1728 -0.38198,0.1728 -0.73212,0.44109 v 3.79248 h -0.8549 v -5.07937 h 0.8549 v 0.56387 q 0.40016,-0.33196 0.82761,-0.5184 0.42745,-0.18644 0.87764,-0.18644 0.82306,0 1.25506,0.49566 0.432,0.49566 0.432,1.42786 z m 10.03595,-5.99338 q 0.41381,0.45473 0.63208,1.11409 0.22282,0.65936 0.22282,1.49607 0,0.83671 -0.22737,1.50062 -0.22282,0.65936 -0.62753,1.10045 -0.41835,0.45928 -0.99132,0.6912 -0.56841,0.23191 -1.30053,0.23191 -0.71393,0 -1.30054,-0.23646 -0.58206,-0.23646 -0.99132,-0.68665 -0.40926,-0.45018 -0.63208,-1.105 -0.21827,-0.65481 -0.21827,-1.49607 0,-0.82761 0.21827,-1.48243 0.21828,-0.65936 0.63663,-1.12773 0.40017,-0.44564 0.99132,-0.6821 0.5957,-0.23646 1.29599,-0.23646 0.72757,0 1.30508,0.241 0.58206,0.23646 0.98677,0.67756 z m -0.0819,2.61016 q 0,-1.31872 -0.59115,-2.03265 -0.59116,-0.71848 -1.61431,-0.71848 -1.03224,0 -1.62339,0.71848 -0.58661,0.71393 -0.58661,2.03265 0,1.33237 0.60025,2.04175 0.60025,0.70484 1.60975,0.70484 1.00951,0 1.60521,-0.70484 0.60025,-0.70938 0.60025,-2.04175 z m 5.02935,-2.86481 h -0.0455 q -0.14096,-0.0409 -0.36833,-0.0819 -0.22737,-0.0455 -0.40017,-0.0455 -0.55022,0 -0.80033,0.24556 -0.24555,0.241 -0.24555,0.87763 v 0.1728 h 1.54154 v 0.71848 h -1.51426 v 4.36089 h -0.8549 v -4.36089 h -0.57751 v -0.71848 h 0.57751 v -0.16825 q 0,-0.90492 0.45019,-1.38694 0.45019,-0.48656 1.30054,-0.48656 0.28648,0 0.51384,0.0273 0.23192,0.0273 0.42291,0.0637 z m 8.71268,0.27738 h -2.41918 v 5.97065 h -0.90037 v -5.97065 h -2.41918 v -0.80033 h 5.73873 z m 3.10128,1.82348 h -0.0455 q -0.19099,-0.0455 -0.37289,-0.0637 -0.17734,-0.0227 -0.4229,-0.0227 -0.39562,0 -0.76395,0.17735 -0.36833,0.1728 -0.70938,0.45018 v 3.60604 h -0.8549 v -5.07937 h 0.8549 v 0.75031 q 0.5093,-0.40926 0.89582,-0.57751 0.39107,-0.1728 0.79578,-0.1728 0.22282,0 0.32286,0.0136 0.10005,0.009 0.30013,0.0409 z m 5.0157,4.14717 h -0.8549 v -0.56387 q -0.43199,0.34105 -0.82761,0.52294 -0.39562,0.18189 -0.87309,0.18189 -0.80033,0 -1.24597,-0.48656 -0.44563,-0.49111 -0.44563,-1.43696 v -3.29681 h 0.85489 v 2.8921 q 0,0.38652 0.0364,0.66391 0.0364,0.27284 0.15461,0.46837 0.12278,0.20009 0.31832,0.29103 0.19553,0.091 0.56841,0.091 0.33196,0 0.72303,-0.1728 0.39561,-0.1728 0.73666,-0.44109 v -3.79247 h 0.8549 z m 5.31128,-1.46424 q 0,0.69574 -0.57751,1.14137 -0.57296,0.44564 -1.56882,0.44564 -0.56387,0 -1.0368,-0.13187 -0.46837,-0.13642 -0.78668,-0.29558 v -0.95948 h 0.0455 q 0.40471,0.30467 0.90037,0.48656 0.49566,0.17735 0.95039,0.17735 0.56387,0 0.88218,-0.1819 0.31832,-0.18189 0.31832,-0.57296 0,-0.30012 -0.1728,-0.45473 -0.1728,-0.15461 -0.66391,-0.26375 -0.18189,-0.0409 -0.47747,-0.0955 -0.29103,-0.0546 -0.53204,-0.11823 -0.66846,-0.17735 -0.95039,-0.5184 -0.27739,-0.34559 -0.27739,-0.8458 0,-0.31377 0.12733,-0.59115 0.13187,-0.27739 0.39562,-0.49566 0.25465,-0.21373 0.64572,-0.3365 0.39561,-0.12733 0.88218,-0.12733 0.45473,0 0.91856,0.11368 0.46837,0.10914 0.77759,0.2683 v 0.91401 h -0.0455 q -0.32741,-0.24101 -0.79578,-0.40471 -0.46838,-0.16825 -0.91856,-0.16825 -0.46838,0 -0.79124,0.18189 -0.32286,0.17735 -0.32286,0.53204 0,0.31376 0.19554,0.47292 0.19098,0.15916 0.61843,0.2592 0.23646,0.0546 0.52749,0.10913 0.29558,0.0546 0.49111,0.10004 0.5957,0.13642 0.91856,0.46838 0.32286,0.3365 0.32286,0.89128 z m 3.86068,1.41876 q -0.241,0.0637 -0.52749,0.10459 -0.28193,0.0409 -0.50475,0.0409 -0.77759,0 -1.1823,-0.41836 -0.40472,-0.41835 -0.40472,-1.34146 v -2.70111 h -0.57751 v -0.71848 h 0.57751 v -1.45969 h 0.8549 v 1.45969 h 1.76436 v 0.71848 h -1.76436 v 2.31459 q 0,0.40016 0.0182,0.62753 0.0182,0.22282 0.12733,0.41835 0.10004,0.1819 0.27284,0.2683 0.17734,0.0819 0.53658,0.0819 0.20918,0 0.43654,-0.0591 0.22737,-0.0637 0.32741,-0.10459 h 0.0455 z"
       id="text9"
       transform="matrix(.30859 0 0 .30895 -199.141 53.192)"
       aria-label="A Tradition Of Trust" /><path
       id="rect10"
       style="fill:none;stroke:#000000;stroke-width:1.23599"
       d="m 38.681,123.218 h 125.24401 c 5.13004,0 9.26,4.12996 9.26,9.26 v 30.244 c 0,5.13004 -4.12996,9.26 -9.26,9.26 H 38.681 c -5.13004,0 -9.26,-4.12996 -9.26,-9.26 v -30.244 c 0,-5.13004 4.12996,-9.26 9.26,-9.26 z" /></g></svg>
